<svg xmlns="http://www.w3.org/2000/svg" width="1580" height="1580" viewBox="0 0 1580 1580"><path d="M1576.948 1074L1211.09 439.975l-25.562-44.443-.95-1.729-66.599 118.864L860.414 959H72.268l-10.531 19h290.007l-7.801 13H53.937l-10.921 20h157.403l-7.8 12H35.215l-11.7 21h220.14l-7.801 14H15.713l-9.751 16h923.257l256.309-444.019L1375.533 959h-339.928l-10.53 19h264.335l-7.8 13h-264.335l-10.921 20h156.053l-7.802 12H998.554l-11.7 21h221.491l-7.801 14H979.052l-9.751 16h470.185l1.176-2.036 1.176 2.036z"/><path d="M541.27 648h135.11l80.346-139h320.664l66.304-115H400.587l-10.531 20h285.952l-7.8 13H382.255l-10.617 19h153.047l-7.801 14H363.773l-11.01 18h223.264l-7.8 14H344.898l-10.617 17h287.334zM379.017 929h135.111l78.786-136h320.992l66.305-115H237.103l-10.531 19h285.953l-7.801 14H218.771l-10.92 18H359.85l-7.801 14H200.05l-10.922 19h215.309l-7.801 13H181.329l-10.532 18h287.006z"/></svg>