<svg xmlns="http://www.w3.org/2000/svg" viewBox="0 0 489.6 489.6"><path d="M244.72 99.2h.2c40.4-.4 34.5-54.4 34.5-54.4-1.6-36.1-31.7-35.8-34.7-35.7-3-.1-33.1-.4-34.8 35.6 0 0-5.9 54 34.6 54.4 0 .1.1.1.2.1zm0 67.1l26.1-36s18.4 7.4 33.4 18.5c3.9 2.9 5.7 4.6 9.2 8.1 8.3 8.3 4.8 56.4 0 74s-18.9 42.9-18.9 42.9c-2.8 6.4-4.6 13.3-5.3 20.2l-18 176.5c-.6 5.6-5.3 9.9-10.9 9.9h-31.2c-5.6 0-10.4-4.3-10.9-9.9l-18-176.5c-.7-7-2.5-13.8-5.3-20.2 0 0-14.1-25.2-18.9-42.9-4.8-17.6-8.3-65.7 0-74 3.5-3.5 5.3-5.2 9.2-8.1 15-11 33.4-18.5 33.4-18.5l26.1 36z" fill="#a7a9ac"/><path d="M41.72 248.8c4.5 16.4 16.5 38.5 18.3 41.9 2.2 5.1 3.6 10.4 4.1 15.9l16.9 165.6c1 9.9 9.3 17.4 19.3 17.4h29.2c10 0 18.3-7.5 19.3-17.4l16.9-165.6c.6-5.6 2-11.1 4.3-16.2 2-4.6-.1-9.9-4.6-11.9-4.6-2-9.9.1-11.9 4.6-3 6.9-5 14.2-5.7 21.7l-16.9 165.6c-.1.6-.6 1.1-1.2 1.1h-29.2c-.6 0-1.2-.5-1.2-1.1l-17.1-165.7c-.8-7.5-2.7-14.8-5.7-21.7-.1-.3-.2-.5-.4-.8-.1-.2-12.7-22.9-16.9-38.2-4.6-17.1-5.9-54.3-2.1-60.9 3-3 4.3-4.2 7.4-6.5 7.9-5.8 17-10.5 22.9-13.3l20.2 27.8c1.7 2.3 4.4 3.7 7.3 3.7s5.6-1.4 7.3-3.7l24.5-33.7c2.9-4 2-9.7-2-12.7-4-2.9-9.7-2-12.7 2l-17.2 23.6-17-23.5c-2.4-3.4-6.9-4.6-10.7-3.1-.7.3-18.5 7.5-33.3 18.4-4.2 3.1-6.2 5-9.7 8.5-12.8 12.8-5.7 66-2.4 78.2zm72.4-116.9h1.7c11.6-.3 21.4-4.5 28.4-12.4 14.9-16.8 12.8-44.8 12.4-48.3-1.5-30.9-23-41.8-40.9-41.8h-1.6c-17.9 0-39.3 11-40.9 41.8-.3 3.5-2.5 31.5 12.4 48.3 7.1 7.9 16.9 12.2 28.5 12.4zm-22.8-59.1v-.6c1-21.6 14.7-24.8 22.8-24.8h1.5c8.1 0 21.8 3.2 22.8 24.8v.5c.7 6.4.5 25.1-8 34.7-3.7 4.2-8.8 6.3-15.5 6.3h-.2c-6.7-.1-11.8-2.1-15.5-6.3-8.4-9.5-8.5-28.2-7.9-34.6zm232.8 205.6c-4.6 2-6.7 7.4-4.6 11.9 2.3 5.2 3.7 10.6 4.3 16.2l16.9 165.6c1 9.9 9.3 17.4 19.3 17.4h29.2c10 0 18.3-7.5 19.3-17.4l16.9-165.6c.6-5.5 1.9-10.8 4.1-15.9 1.8-3.3 13.9-25.4 18.3-41.9 3.3-12.2 10.5-65.4-2.3-78.2-3.5-3.5-5.5-5.4-9.7-8.5-14.8-10.9-32.5-18.1-33.3-18.4-3.9-1.6-8.3-.3-10.7 3.1l-17.2 23.6-17.3-23.5c-2.9-4.1-8.6-4.9-12.7-2-4 2.9-4.9 8.6-2 12.7l24.5 33.7c1.7 2.3 4.4 3.7 7.3 3.7s5.6-1.4 7.3-3.7l20.2-27.8c5.9 2.8 15 7.5 22.9 13.3 3 2.2 4.3 3.5 7.4 6.5 3.8 6.6 2.5 43.8-2.1 60.9-4.2 15.3-16.8 38-16.9 38.2s-.3.5-.4.8c-3 6.9-5 14.2-5.7 21.7l-16.9 165.6c-.1.6-.6 1.1-1.2 1.1h-29.2c-.6 0-1.2-.5-1.2-1.1l-16.9-165.6c-.8-7.5-2.7-14.8-5.7-21.7-2-4.7-7.3-6.7-11.9-4.7zm49.5-146.5h1.7c11.6-.2 21.4-4.5 28.5-12.4 14.9-16.8 12.8-44.8 12.4-48.3-1.5-30.9-22.9-41.8-40.9-41.8h-1.6c-17.9 0-39.3 11-40.9 41.8-.3 3.5-2.5 31.5 12.4 48.3 7 7.9 16.8 12.1 28.4 12.4zm-22.8-59.1v-.6c1-21.6 14.7-24.8 22.8-24.8h1.5c8.1 0 21.8 3.2 22.8 24.8v.5c.7 6.4.5 25.1-8 34.7-3.7 4.2-8.8 6.2-15.5 6.3h-.2c-6.7-.1-11.8-2.1-15.5-6.3-8.4-9.5-8.5-28.2-7.9-34.6zm-181.2 77.7c-13.5 13.5-5.9 69.8-2.3 82.8 4.8 17.5 17.6 41.1 19.5 44.5 2.4 5.5 3.9 11.2 4.5 17.1l18 176.5c1 10.3 9.6 18 20 18h31.1c10.3 0 18.9-7.8 20-18l18-176.5c.6-5.9 2.1-11.7 4.5-17.1 1.9-3.5 14.7-27 19.5-44.5 3.5-13 11.2-69.3-2.3-82.8-3.7-3.7-5.8-5.7-10.2-9-15.7-11.6-34.6-19.2-35.4-19.6-3.9-1.6-8.3-.3-10.7 3.1l-19.1 25.9-18.8-25.9c-2.4-3.4-6.9-4.6-10.7-3.1-.8.3-19.6 8-35.4 19.6-4.4 3.3-6.6 5.3-10.2 9zm13 12.6c3.3-3.3 4.7-4.6 8-7 8.6-6.4 18.6-11.5 25-14.5l21.8 30c1.7 2.3 4.4 3.7 7.3 3.7 2.9 0 5.6-1.4 7.3-3.7l21.8-30c6.3 3 16.3 8.1 25 14.5 3.3 2.4 4.7 3.7 8 7 4.2 6.8 2.9 46.9-2.2 65.4-4.5 16.4-17.9 40.6-18.1 40.8-.1.2-.3.5-.4.8-3.2 7.3-5.3 15-6.1 23l-18 176.5c-.1 1-.9 1.7-1.9 1.7h-31.1c-1 0-1.8-.7-1.9-1.7l-18-176.5c-.8-7.9-2.8-15.7-6.1-23-.1-.3-.2-.5-.4-.8-.1-.2-13.6-24.5-18.1-40.9-4.8-18.4-6.1-58.5-1.9-65.3zm61.2-54.9h1.8c12.4-.2 22.4-4.6 29.9-13.1 15.8-17.7 13.4-47.5 13.1-51.1-1.6-32.5-24.1-44-43-44h-1.8c-18.8 0-41.4 11.5-43 44-.3 3.6-2.7 33.3 13.1 51 7.5 8.5 17.6 12.9 29.9 13.2zm-24.9-62.5v-.6c1.1-24.4 17.8-27 24.9-27h1.7c7.1 0 23.8 2.6 24.9 27v.5c.7 6.9.6 27.1-8.6 37.4-4.1 4.6-9.7 6.9-17 6.9h-.3c-7.3-.1-12.9-2.3-17-6.9-9.2-10.2-9.3-30.4-8.6-37.3z"/></svg>