<svg xmlns="http://www.w3.org/2000/svg" viewBox="0 0 511.995 511.995" fill="#fff"><path d="M469.331 179.197H42.664a8.536 8.536 0 0 0-8.533 8.533v290.133a8.53 8.53 0 0 0 8.533 8.533h426.667a8.525 8.525 0 0 0 8.533-8.533V187.73a8.53 8.53 0 0 0-8.533-8.533zm-8.534 290.133h-409.6V196.264h409.6V469.33z"/><path d="M511.605 304.654L426.272 31.587c-1.408-4.497-6.212-7.006-10.684-5.598l-409.6 128A8.531 8.531 0 0 0 .33 164.476l34.133 119.467 16.41-4.685-31.846-111.462L412.533 44.823l80.094 256.299-25.361 6.34 4.13 16.546 34.133-8.542a8.497 8.497 0 0 0 5.376-4.096 8.51 8.51 0 0 0 .7-6.716z"/><path d="M399.084 318.785a8.592 8.592 0 0 0-5.948-3.038c-2.321-.213-4.591.606-6.315 2.167l-78.711 70.835L194.318 250.57a8.578 8.578 0 0 0-6.178-3.098c-2.423-.043-4.745.785-6.443 2.492L70.764 360.897l12.066 12.066 104.294-104.277 113.493 137.805a8.525 8.525 0 0 0 5.948 3.081 8.457 8.457 0 0 0 6.331-2.176l78.746-70.869 36.992 44.39 13.116-10.931-42.666-51.201z"/><path d="M307.197 247.464c-23.526 0-42.667 19.14-42.667 42.667 0 23.526 19.14 42.667 42.667 42.667 23.526 0 42.667-19.14 42.667-42.667s-19.14-42.667-42.667-42.667zm0 68.266c-14.114 0-25.6-11.486-25.6-25.6s11.486-25.6 25.6-25.6c14.123 0 25.6 11.486 25.6 25.6s-11.485 25.6-25.6 25.6z"/><path d="M435.197 213.33h-358.4a8.536 8.536 0 0 0-8.533 8.533V443.73a8.53 8.53 0 0 0 8.533 8.533h358.4a8.525 8.525 0 0 0 8.533-8.533V221.864a8.53 8.53 0 0 0-8.533-8.534zm-8.533 221.867H85.331v-204.8h341.333v204.8zM400.62 82.634c-1.459-4.386-6.153-6.852-10.598-5.453l-332.8 102.4 5.018 16.307 324.838-99.942 31.497 94.49 16.179-5.402-34.134-102.4z"/><path d="M380.593 151.045c-5.692-4.275-12.911-6.409-20.087-5.888-9.924-15.053-29.483-21.444-46.729-14.276a38.229 38.229 0 0 0-18.85 16.905c-12.689-5.393-27.964-2.697-38.042 7.842-8.926 9.361-11.793 22.758-7.484 34.953l16.085-5.692a17.013 17.013 0 0 1 3.738-17.468c6.528-6.81 17.331-7.057 24.141-.563a8.504 8.504 0 0 0 8.499 1.954 8.532 8.532 0 0 0 5.777-6.537 21.17 21.17 0 0 1 12.698-15.642 21.21 21.21 0 0 1 16.256-.034c5.257 2.159 9.344 6.238 11.529 11.477 1.749 4.215 6.528 6.323 10.82 4.727 3.831-1.417 8.201-.512 11.392 1.886 5.649 4.232 6.801 12.271 2.568 17.92l13.653 10.24c9.882-13.174 7.203-31.93-5.964-41.804z"/></svg>