<?xml version="1.0" encoding="utf-8"?>
<!-- Generator: Adobe Illustrator 16.0.0, SVG Export Plug-In . SVG Version: 6.00 Build 0)  -->
<!DOCTYPE svg PUBLIC "-//W3C//DTD SVG 1.1//EN" "http://www.w3.org/Graphics/SVG/1.1/DTD/svg11.dtd">
<svg version="1.1" id="Layer_1" xmlns="http://www.w3.org/2000/svg" xmlns:xlink="http://www.w3.org/1999/xlink" x="0px" y="0px"
	 width="1580px" height="1580px" viewBox="0 0 1580 1580" enable-background="new 0 0 1580 1580" xml:space="preserve">
<radialGradient id="SVGID_1_" cx="754.8887" cy="780.8955" r="614.3608" gradientTransform="matrix(1.0701 0 0 1.0573 -12.3046 -36.6409)" gradientUnits="userSpaceOnUse">
	<stop  offset="0.0093" style="stop-color:#FDFDFD"/>
	<stop  offset="0.1608" style="stop-color:#FAFAFA"/>
	<stop  offset="0.2937" style="stop-color:#EFEFEF"/>
	<stop  offset="0.4197" style="stop-color:#DDDDDD"/>
	<stop  offset="0.5414" style="stop-color:#C3C3C3"/>
	<stop  offset="0.66" style="stop-color:#A3A3A3"/>
	<stop  offset="0.7764" style="stop-color:#7B7B7B"/>
	<stop  offset="0.8886" style="stop-color:#4C4C4C"/>
	<stop  offset="1" style="stop-color:#161616"/>
</radialGradient>
<ellipse display="none" fill="url(#SVGID_1_)" cx="795.502" cy="789" rx="679.498" ry="627"/>
<image display="none" overflow="visible" opacity="0.6" width="393" height="374" xlink:href="../../Downloads/stonehaven/stonehaven copie.png"  transform="matrix(3.5114 0 0 3.6577 102.9961 117.0098)">
</image>
<line display="none" fill="none" stroke="#000000" stroke-miterlimit="10" x1="157.715" y1="1130.5" x2="533" y2="482"/>
<line display="none" fill="none" stroke="#000000" stroke-miterlimit="10" x1="233.963" y1="1182.5" x2="525.037" y2="679.5"/>
<g display="none">
	<polygon stroke="#000000" stroke-miterlimit="10" points="1242.371,355.5 1342.371,355.5 1355.073,333.5 1255.073,333.5 	"/>
	<polygon display="inline" stroke="#000000" stroke-miterlimit="10" points="425.297,1037.5 525.297,1037.5 574.372,952.5 
		474.372,952.5 	"/>
	<polygon stroke="#000000" stroke-miterlimit="10" points="1225.162,374.5 1212.46,396.5 1312.46,396.5 1325.162,374.5 	"/>
</g>
<image display="none" overflow="visible" opacity="0.5" width="1284" height="1237" xlink:href="../../Downloads/White-rhombus-pattern/preview copie.png"  transform="matrix(1.1308 0 0 1.0493 68.9912 144.9756)">
</image>
<image display="none" overflow="visible" opacity="0.1" width="660" height="652" xlink:href="../../Desktop/Capture d’écran 2018-05-25 à 20.54.34.png"  transform="matrix(1.4367 1.4479 -1.5339 1.522 818.3281 -172.9453)">
</image>
<image display="none" overflow="visible" opacity="0.7" width="801" height="763" xlink:href="../../Downloads/iPsyl.png"  transform="matrix(1.2128 1.158 -1.2873 1.3483 814.6338 -187.2031)">
</image>
<image display="none" overflow="visible" opacity="0.2" width="990" height="962" xlink:href="../../Downloads/depositphotos_77064713-stock-illustration-isometric-grid-paper-seamless-pattern.png"  transform="matrix(1.4323 0 0 1.343 85.9873 151.0381)">
</image>
<image display="none" overflow="visible" opacity="0.5" width="1282" height="1282" xlink:href="../../Downloads/grid.png"  transform="matrix(1.0983 0 0 1.0078 96.7812 150.9531)">
</image>
<g>
	<g>
		<polygon points="1576.948,1074 1211.09,439.975 1185.528,395.532 1185.528,395.532 1184.578,393.803 1117.979,512.667 
			860.414,959 72.268,959 61.737,978 351.744,978 343.943,991 53.937,991 43.016,1011 200.419,1011 192.619,1023 35.215,1023 
			23.515,1044 243.655,1044 235.854,1058 15.713,1058 5.962,1074 794.109,1074 796.36,1074 929.219,1074 1185.528,629.981 
			1375.533,959 1035.605,959 1025.075,978 1289.41,978 1281.61,991 1017.275,991 1006.354,1011 1162.407,1011 1154.605,1023 
			998.554,1023 986.854,1044 1208.345,1044 1200.544,1058 979.052,1058 969.301,1074 1439.486,1074 1440.662,1071.964 
			1441.838,1074 		"/>
		<polygon points="541.27,648 676.38,648 756.726,509 1077.39,509 1143.694,394 823.031,394 687.921,394 400.587,394 390.056,414 
			676.008,414 668.208,427 382.255,427 371.638,446 524.685,446 516.884,460 363.773,460 352.763,478 576.027,478 568.227,492 
			344.898,492 334.281,509 621.615,509 		"/>
		<polygon points="379.017,929 514.128,929 592.914,793 913.906,793 980.211,678 659.219,678 524.108,678 237.103,678 226.572,697 
			512.525,697 504.724,711 218.771,711 207.851,729 359.85,729 352.049,743 200.05,743 189.128,762 404.437,762 396.636,775 
			181.329,775 170.797,793 457.803,793 		"/>
	</g>
</g>
<g display="none">
	
		<image display="inline" overflow="visible" width="1714" height="1606" xlink:href="EC78D56E50D2DA5D.png"  transform="matrix(1 0 0 1 -62 -4)">
	</image>
</g>
<g display="none">
	
		<image display="inline" overflow="visible" width="226" height="228" xlink:href="../../Desktop/Screen Shot 2018-05-30 at 23.55.33.png"  transform="matrix(0.5 0 0 0.5 150 390)">
	</image>
</g>
<g display="none">
	
		<image display="inline" overflow="visible" opacity="0.8" width="80" height="82" xlink:href="EC78D56E50D2DA5C.png"  transform="matrix(1 0 0 1 1461 764)">
	</image>
	<g display="inline">
		
			<image overflow="visible" width="630" height="627" xlink:href="../../Desktop/Screen Shot 2018-05-30 at 23.58.58.png"  transform="matrix(0.5 0 0 0.5 150 390)">
		</image>
	</g>
</g>
<g display="none">
	
		<image display="inline" overflow="visible" opacity="0.8" width="73" height="74" xlink:href="2D76D8F1AE798D90.png"  transform="matrix(1 0 0 1 56 756)">
	</image>
	<g display="inline">
		
			<image overflow="visible" width="638" height="629" xlink:href="../../Desktop/Screen Shot 2018-05-30 at 23.58.54.png"  transform="matrix(0.5 0 0 0.5 150 390)">
		</image>
	</g>
</g>
<g display="none">
	
		<image display="inline" overflow="visible" width="79" height="78" xlink:href="2D76D8F1AE798D91.png"  transform="matrix(1 0 0 1 750 101)">
	</image>
	<g display="inline">
		
			<image overflow="visible" width="639" height="637" xlink:href="../../Desktop/Screen Shot 2018-05-31 at 00.05.22.png"  transform="matrix(0.5 0 0 0.5 150 390)">
		</image>
	</g>
</g>
<text transform="matrix(0.5031 0.8642 -0.8642 0.5031 1049.3027 605.998)" display="none" fill="#E6E6E6" font-family="'Seravek-Bold'" font-size="70" letter-spacing="3">CARROSSERIE</text>
<text transform="matrix(1 0 0 1 600.4199 952.5)" display="none" fill="#F77C1E" font-family="'BrushScriptMT'" font-size="80">By Bielly</text>
</svg>
